<svg width="25" height="25" viewBox="0 0 25 25" fill="none" xmlns="http://www.w3.org/2000/svg">
<path d="M20.7292 21.849L13.8802 15C13.3594 15.4514 12.7517 15.8029 12.0573 16.0547C11.3628 16.3064 10.625 16.4323 9.84375 16.4323C7.96875 16.4323 6.38021 15.7812 5.07812 14.4792C3.77604 13.1771 3.125 11.6059 3.125 9.76562C3.125 7.92534 3.77604 6.35416 5.07812 5.05208C6.38021 3.74999 7.96007 3.09895 9.81771 3.09895C11.658 3.09895 13.2248 3.74999 14.5182 5.05208C15.8116 6.35416 16.4583 7.92534 16.4583 9.76562C16.4583 10.5121 16.3368 11.2326 16.0937 11.9271C15.8507 12.6215 15.4861 13.2726 15 13.8802L21.875 20.7031L20.7292 21.849ZM9.81771 14.8698C11.224 14.8698 12.4219 14.3707 13.4115 13.3724C14.401 12.3741 14.8958 11.1719 14.8958 9.76562C14.8958 8.35937 14.401 7.15711 13.4115 6.15885C12.4219 5.16059 11.224 4.66145 9.81771 4.66145C8.3941 4.66145 7.18316 5.16059 6.1849 6.15885C5.18663 7.15711 4.6875 8.35937 4.6875 9.76562C4.6875 11.1719 5.18663 12.3741 6.1849 13.3724C7.18316 14.3707 8.3941 14.8698 9.81771 14.8698Z" fill="#747474"/>
</svg>
